<?xml version="1.0" encoding="UTF-8" standalone="no"?>
<!-- Created with Inkscape (http://www.inkscape.org/) -->

<svg
   width="70.811966mm"
   height="67.303116mm"
   viewBox="0 0 70.811966 67.303116"
   version="1.1"
   id="svg1"
   xml:space="preserve"
   xmlns="http://www.w3.org/2000/svg"
   xmlns:svg="http://www.w3.org/2000/svg"><defs
     id="defs1" /><g
     id="layer1"
     transform="translate(-69.532163,-114.92622)"><path
       style="fill:#00af00;fill-opacity:1"
       d="m 97.073406,182.10667 c -11.999804,-1.05896 -21.382258,-6.71578 -25.236077,-15.2152 -1.867722,-4.11917 -2.663222,-9.71285 -2.154647,-15.15073 1.785359,-19.08974 11.996872,-31.63451 29.025205,-35.65725 4.376903,-1.03399 7.256973,-1.26433 13.963743,-1.11681 11.85483,0.26077 18.02732,2.15988 22.9722,7.06791 3.56551,3.53894 4.98071,7.15411 4.6549,11.89106 -0.48005,6.97936 -3.52728,11.49521 -9.8383,14.57985 -6.67736,3.2637 -16.10738,4.70263 -26.14842,3.98999 -2.6443,-0.18768 -5.165013,-0.35977 -5.601575,-0.38242 l -0.79375,-0.0412 0.08129,1.5875 c 0.10227,1.99721 0.695405,4.13956 1.498154,5.4112 2.049041,3.24589 6.943051,4.98212 13.237221,4.6961 3.41936,-0.15538 5.5981,-0.64249 11.50937,-2.57319 1.81902,-0.59411 3.84704,-1.14688 4.50672,-1.22836 1.6853,-0.20818 1.94897,0.1807 1.78091,2.62662 -0.59962,8.72651 -10.56215,17.2779 -22.25365,19.10155 -3.18456,0.49673 -8.17306,0.68079 -11.203294,0.41338 z m 7.198514,-38.43174 c 2.61161,-1.3339 4.99246,-4.78626 6.06942,-8.80097 0.65891,-2.45631 0.83899,-7.17255 0.32092,-8.4047 -0.71861,-1.70907 -2.08204,-1.8059 -3.8707,-0.27487 -2.71063,2.3202 -5.42917,8.03766 -7.27206,15.29415 -0.369571,1.45521 -0.673033,2.75043 -0.67436,2.87827 -0.0013,0.12784 0.920321,0.17709 2.04811,0.10946 1.50255,-0.0901 2.40544,-0.30425 3.37867,-0.80134 z"
       id="path1" /></g></svg>
